# Blender 4.4.3
# www.blender.org
o Letter
v -0.037789 -0.000849 0.029408
v -0.037789 -0.000810 -0.029407
v 0.037789 -0.000849 0.029408
v 0.037789 -0.000810 -0.029407
v -0.037789 0.000810 0.029407
v -0.037789 0.000849 -0.029408
v 0.037789 0.000810 0.029407
v 0.037789 0.000849 -0.029408
vn -0.0000 -1.0000 -0.0007
vn 1.0000 -0.0000 -0.0000
vn -0.0000 1.0000 0.0007
vn -1.0000 -0.0000 -0.0000
vn -0.0000 0.0004 1.0000
vn -0.0000 -0.0004 -1.0000
vt 0.019304 0.019304
vt 0.019304 0.980685
vt 0.980696 0.980684
vt 0.980696 0.019304
vt 0.980696 0.980696
vt 0.980696 0.019316
vt 0.019304 0.980696
vt 0.019304 0.019315
s 0
f 1/1/1 2/2/1 4/3/1 3/4/1
f 3/4/2 4/3/2 8/5/2 7/6/2
f 7/6/3 8/5/3 6/7/3 5/8/3
f 5/8/4 6/7/4 2/2/4 1/1/4
f 3/4/5 7/6/5 5/8/5 1/1/5
f 8/5/6 4/3/6 2/2/6 6/7/6
